<?xml version="1.0" encoding="UTF-8" standalone="no"?>
<!DOCTYPE svg PUBLIC "-//W3C//DTD SVG 1.1//EN" "http://www.w3.org/Graphics/SVG/1.1/DTD/svg11.dtd">
<svg width="100%" height="100%" viewBox="0 0 1080 1080" version="1.1" xmlns="http://www.w3.org/2000/svg" xmlns:xlink="http://www.w3.org/1999/xlink" xml:space="preserve" xmlns:serif="http://www.serif.com/" style="fill-rule:evenodd;clip-rule:evenodd;stroke-linejoin:round;stroke-miterlimit:2;">
    <rect id="ArtBoard1" x="0" y="0" width="1080" height="1080" style="fill:none;"/>
    <g id="ArtBoard11" serif:id="ArtBoard1">
        <g transform="matrix(1.10678,0,0,1.10678,-56.5561,-57.6628)">
            <g transform="matrix(1.16057,0,0,1.10906,263.214,-5.13614)">
                <path d="M434.085,348.027L434.085,422.102C434.085,460.421 404.356,491.531 367.738,491.531L301.392,491.531L301.392,382.352C301.392,344.243 330.958,313.303 367.376,313.303L400.902,313.303C419.216,313.303 434.085,328.862 434.085,348.027Z"/>
            </g>
            <g transform="matrix(7.10645e-17,1.16057,-1.7169,1.0513e-16,1304.91,408.364)">
                <path d="M302.253,491.531L-180.965,491.531C-195.465,491.531 -207.238,483.573 -207.238,473.772L-207.238,418.429C-207.238,408.627 -195.465,400.67 -180.965,400.67L277.74,400.669C294.59,400.693 301.644,394.665 301.392,384.227L301.392,335.727C301.392,323.351 316.256,313.303 334.565,313.303L367.738,313.303C404.356,313.303 434.085,333.399 434.085,358.151L434.085,401.834C434.085,451.145 375.093,491.215 302.253,491.529L302.253,491.531Z"/>
            </g>
            <g transform="matrix(-1.16057,0,0,1.10906,814.786,70.786)">
                <path d="M434.085,349.308L434.085,422.102C434.085,460.421 404.356,491.531 367.738,491.531L301.392,491.531L301.392,382.352C301.392,344.243 330.958,313.303 367.376,313.303L399.678,313.303C418.668,313.303 434.085,329.436 434.085,349.308Z"/>
            </g>
        </g>
    </g>
</svg>
